<svg  width="29" height="26" viewBox="0 0 29 26" fill="none" xmlns="http://www.w3.org/2000/svg">
<path class="arrow-icon" d="M6.48109 14.0834H19.582L13.8584 19.3701C13.401 19.7926 13.401 20.4859 13.8584 20.9084C14.3158 21.3309 15.0547 21.3309 15.5122 20.9084L23.2413 13.7693C23.6987 13.3468 23.6987 12.6643 23.2413 12.2418L15.5239 5.09176C15.3048 4.8889 15.0073 4.7749 14.697 4.7749C14.3868 4.7749 14.0893 4.8889 13.8701 5.09176C13.4127 5.51426 13.4127 6.19676 13.8701 6.61926L19.582 11.9168H6.48109C5.83602 11.9168 5.30823 12.4043 5.30823 13.0001C5.30823 13.5959 5.83602 14.0834 6.48109 14.0834Z" fill="#37474F"/>
<mask id="mask0_1905_256" style="mask-type:alpha" maskUnits="userSpaceOnUse" x="5" y="4" width="19" height="18">
<path d="M6.48109 14.0834H19.582L13.8584 19.3701C13.401 19.7926 13.401 20.4859 13.8584 20.9084C14.3158 21.3309 15.0547 21.3309 15.5122 20.9084L23.2413 13.7693C23.6987 13.3468 23.6987 12.6643 23.2413 12.2418L15.5239 5.09176C15.3048 4.8889 15.0073 4.7749 14.697 4.7749C14.3868 4.7749 14.0893 4.8889 13.8701 5.09176C13.4127 5.51426 13.4127 6.19676 13.8701 6.61926L19.582 11.9168H6.48109C5.83602 11.9168 5.30823 12.4043 5.30823 13.0001C5.30823 13.5959 5.83602 14.0834 6.48109 14.0834Z" fill="white"/>
</mask>
<g mask="url(#mask0_1905_256)">
</g>
</svg>
