<svg width="31" height="30" viewBox="0 0 31 30" fill="none" xmlns="http://www.w3.org/2000/svg">
<path fill-rule="evenodd" clip-rule="evenodd" d="M20.0854 3.75H11.5604C8.02924 3.75 5.16666 6.66604 5.16666 10.2632V18.9474C5.16666 22.5445 8.02924 25.4605 11.5604 25.4605H20.0854C23.6166 25.4605 26.4792 22.5445 26.4792 18.9474V10.2632C26.4792 6.66604 23.6166 3.75 20.0854 3.75ZM7.29791 10.2632C7.29791 7.86508 9.20629 5.92105 11.5604 5.92105H20.0854C22.4395 5.92105 24.3479 7.86508 24.3479 10.2632V18.9474C24.3479 21.3454 22.4395 23.2895 20.0854 23.2895H11.5604C9.20629 23.2895 7.29791 21.3454 7.29791 18.9474V10.2632ZM15.8229 20.0329C12.8803 20.0329 10.4948 17.6029 10.4948 14.6053C10.4948 11.6077 12.8803 9.17763 15.8229 9.17763C18.7655 9.17763 21.151 11.6077 21.151 14.6053C21.151 17.6029 18.7655 20.0329 15.8229 20.0329ZM15.8229 17.8618C17.5885 17.8618 19.0198 16.4038 19.0198 14.6053C19.0198 12.8067 17.5885 11.3487 15.8229 11.3487C14.0573 11.3487 12.626 12.8067 12.626 14.6053C12.626 16.4038 14.0573 17.8618 15.8229 17.8618ZM21.151 10.2632C21.7396 10.2632 22.2167 9.77715 22.2167 9.17763C22.2167 8.57811 21.7396 8.09211 21.151 8.09211C20.5625 8.09211 20.0854 8.57811 20.0854 9.17763C20.0854 9.77715 20.5625 10.2632 21.151 10.2632Z" fill="#262626"/>
</svg>
